<?xml version="1.0" encoding="UTF-8"?>
<svg version="1.1" xmlns="http://www.w3.org/2000/svg" width="890" height="890">

<defs>
  <style>
    .blue-fill   { fill: rgb(21,101,192); }
    .blue-stroke { fill: none; stroke: rgb(21,101,192); stroke-opacity: 0.8; stroke-width: 2.5; stroke-linecap: round; stroke-linejoin: round; }
    .grey-stroke { fill: none; stroke: rgb(110,109,115); stroke-opacity: 0.8; stroke-width: 2.5; stroke-linecap: round; stroke-linejoin: round; }
    .face-fill   { fill: rgb(21,101,192); fill-opacity: 0.098; stroke: none; fill-rule: evenodd; }
    .dot-fill    { fill: rgb(21,101,192); }
    .dot-stroke  { fill: none; stroke: rgb(0,0,0); }
    .label       { fill: rgb(21,101,192); font-family: geogebra-sans-serif, sans-serif; font-size: 16px; }
    .txt       	 { fill: #FF8000; font-family: geogebra-sans-serif, sans-serif; font-size: 16px; }	
    .caption     { font-family: sans-serif; font-size: 12px; fill: black; }
  </style>

  <!-- Reusable dot marker: filled blue circle + black outline -->
  <symbol id="dot" overflow="visible">
    <circle r="5" class="dot-fill"/>
    <circle r="5" class="dot-stroke"/>
  </symbol>
</defs>

<rect fill="white" x="0" y="0" width="890" height="890"/>

<!-- ── Shaded quad faces ─────────────────────────────────────────── -->
<polygon class="face-fill" points="412,396 560,330 412,264 262,330"/>
<polygon class="face-fill" points="412,396 412,586 560,520 560,330"/>
<polygon class="face-fill" points="262,330 262,520 412,586 412,396"/>

<!-- ── Three symmetry circles ────────────────────────────────────── -->
<!-- circle centre (307, 485) r≈205 -->
<circle class="grey-stroke" cx="307" cy="485" r="205" stroke-width="1" stroke-dasharray="1, 10" stroke-opacity="0.4"/>
<circle class="grey-stroke" cx="307" cy="485" r="185" />
<circle class="grey-stroke" cx="307" cy="485" r="165" stroke-width="1" stroke-dasharray="1, 10" stroke-opacity="0.4"/>
<!-- circle centre (512, 485) r≈205 -->
<circle class="grey-stroke" cx="512" cy="485" r="205" stroke-width="1" stroke-dasharray="1, 10" stroke-opacity="0.4"/>
<circle class="grey-stroke" cx="512" cy="485" r="185"/>
<circle class="grey-stroke" cx="512" cy="485" r="165" stroke-width="1" stroke-dasharray="1, 10" stroke-opacity="0.4"/>
<!-- circle centre (405, 309) r≈205 -->
<circle class="grey-stroke" cx="405" cy="307" r="205" stroke-width="1" stroke-dasharray="1, 10" stroke-opacity="0.4"/>
<circle class="grey-stroke" cx="405" cy="307" r="165" stroke-width="1" stroke-dasharray="1, 10" stroke-opacity="0.4"/>
<circle class="grey-stroke" cx="405" cy="307" r="185" />

<!-- ── Cube edges (blue) ──────────────────────────────────────────── -->
<!-- Front face: 412,441 → 560,326 → 412,178 → 262,328 → close -->
<polygon class="blue-stroke" points="412,396 560,330 412,264 262,330"/>
<!-- Side/bottom face edges -->
<polyline class="blue-stroke" points="412,396 412,586 560,520 560,330"/>
<polyline class="blue-stroke" points="262,330 262,520 412,586"/>

<!-- ── Dot markers ────────────────────────────────────────────────── -->
<!-- use href="#dot" x="307" y="487"/ --> <!-- Front  -->
<circle r="8" cx="327" cy="475" fill="red" />
<!-- use href="#dot" x="512" y="484"/ --> <!-- Right  -->
<circle r="8" cx="492" cy="470" fill="blue" />
<!-- use href="#dot" x="408" y="319"/ --> <!-- Top    -->
<circle r="8" cx="408" cy="329" fill="white" />
<!-- use href="#dot" x="610" y="304"/ --> <!-- Back   -->
<circle r="8" cx="590" cy="315" fill="orange" />
<use href="#dot" x="412" y="396"/> <!-- 3      -->
<use href="#dot" x="560" y="330"/> <!-- 2      -->
<use href="#dot" x="410" y="264"/> <!-- 1      -->
<use href="#dot" x="262" y="330"/> <!-- 4      -->
<use href="#dot" x="411" y="586"/> <!-- 6      -->
<use href="#dot" x="560" y="520"/> <!-- 7      -->
<use href="#dot" x="264" y="520"/> <!-- 5      -->

<circle r="8" cx="220" cy="322" fill="green" /> <!-- Left -->
<circle r="8" cx="410" cy="640" fill="yellow" /> <!-- Bottom  -->

<!-- ── Labels ────────────────────────────────────────────────────── -->
<text class="txt" x="342" y="470">Front</text>
<text class="txt" x="440" y="470">Right</text>
<text class="txt" x="398" y="305">Top</text>
<text class="txt" x="160" y="310">Left</text>
<text class="txt" x="623" y="305">Back</text>
<text class="txt" x="384" y="690">Bottom</text>
<text class="label" x="420" y="415">3</text>
<text class="label" x="575" y="333">2</text>
<text class="label" x="404" y="253">1</text>
<text class="label" x="239" y="333">4</text>
<text class="label" x="239" y="525">5</text>
<text class="label" x="409" y="610">6</text>
<text class="label" x="575" y="525">7</text>

<!-- ── Title ──────────────────────────────────────────────────────── -->
<text x="108" y="42" font-family="sans-serif" font-size="18" font-weight="bold" fill="black">A cube and its dual octahedron</text>

<!-- ── Captions ───────────────────────────────────────────────────── -->
<text class="caption" x="100" y="742">The six face-centres of the cube (Front, Back, Left, Right, Top, Bottom) are the vertices of a regular octahedron (its dual polyhedron).</text>
<text class="caption" x="100" y="762">Each of the three circles passes through four face-centres lying in a common plane of symmetry of the cube.</text>
<text class="caption" x="100" y="782">The two solids share the same centre, and duality swaps their vertices with faces:</text>
<text class="caption" x="100" y="802">the cube's 6 faces correspond to the octahedron's 6 vertices, while its 8 vertices correspond to the octahedron's 8 faces.</text>

</svg>
