 <svg xmlns="http://www.w3.org/2000/svg" viewBox="0 0 1024 1024">
 <!--<svg width="1024" height="1024" 
         xmlns="http://www.w3.org/2000/svg"> -->
  <!-- Title -->
  <text x="400" y="50" font-family="Arial, sans-serif" font-size="26" font-weight="bold" text-anchor="middle">MAGIC SQUARES / MAGIC CIRCLES</text>
  <text x="400" y="80" font-family="Arial, sans-serif" font-size="26" font-weight="bold" text-anchor="middle">in the Rubik's cube structure</text>
  <!-- Up Square -->
  <text x="400" y="105" font-family="Arial, sans-serif" font-size="18" text-anchor="middle">Up</text>
  <text x="400" y="125" font-family="Arial, sans-serif" font-size="18" text-anchor="middle">Median: 15 = 135 ÷ 9</text>
  
  <!-- Up Square Grid -->
  <rect x="325" y="150" width="50" height="50" fill="white" stroke="black" stroke-width="2"/>
  <rect x="375" y="150" width="50" height="50" fill="white" stroke="black" stroke-width="2"/>
  <rect x="425" y="150" width="50" height="50" fill="white" stroke="black" stroke-width="2"/>
  <rect x="325" y="200" width="50" height="50" fill="white" stroke="black" stroke-width="2"/>
  <rect x="375" y="200" width="50" height="50" fill="#ffff00" stroke="black" stroke-width="2"/>
  <rect x="425" y="200" width="50" height="50" fill="white" stroke="black" stroke-width="2"/>
  <rect x="325" y="250" width="50" height="50" fill="white" stroke="black" stroke-width="2"/>
  <rect x="375" y="250" width="50" height="50" fill="white" stroke="black" stroke-width="2"/>
  <rect x="425" y="250" width="50" height="50" fill="white" stroke="black" stroke-width="2"/>
  
  <!-- Up Square Numbers -->
  <text x="350" y="180" font-family="Arial, sans-serif" font-size="24" text-anchor="middle">24</text>
  <text x="400" y="180" font-family="Arial, sans-serif" font-size="24" text-anchor="middle">3</text>
  <text x="450" y="180" font-family="Arial, sans-serif" font-size="24" text-anchor="middle">18</text>
  <text x="350" y="230" font-family="Arial, sans-serif" font-size="24" text-anchor="middle">9</text>
  <text x="400" y="230" font-family="Arial, sans-serif" font-size="24" text-anchor="middle">15</text>
  <text x="450" y="230" font-family="Arial, sans-serif" font-size="24" text-anchor="middle">21</text>
  <text x="350" y="280" font-family="Arial, sans-serif" font-size="24" text-anchor="middle">12</text>
  <text x="400" y="280" font-family="Arial, sans-serif" font-size="24" text-anchor="middle">27</text>
  <text x="450" y="280" font-family="Arial, sans-serif" font-size="24" text-anchor="middle">6</text>
  <text x="500" y="180" font-family="Arial, sans-serif" font-size="24" text-anchor="middle">45</text>
  <text x="500" y="230" font-family="Arial, sans-serif" font-size="24" text-anchor="middle">45</text>
  <text x="500" y="280" font-family="Arial, sans-serif" font-size="24" text-anchor="middle">45</text> 
  <text x="350" y="330" font-family="Arial, sans-serif" font-size="24" text-anchor="middle">45</text>
  <text x="400" y="330" font-family="Arial, sans-serif" font-size="24" text-anchor="middle">45</text>
  <text x="450" y="330" font-family="Arial, sans-serif" font-size="24" text-anchor="middle">45</text> 
  <text x="530" y="330" font-family="Arial, sans-serif" font-size="18" text-anchor="middle">24+6=2*15</text> 
  
  <!-- Left Square -->
  <text x="185" y="380" font-family="Arial, sans-serif" font-size="18" text-anchor="middle">Left</text>
  <text x="185" y="400" font-family="Arial, sans-serif" font-size="18" text-anchor="middle">42 =378÷9</text>
  
  <!-- Left Square Grid -->
  <rect x="110" y="450" width="50" height="50" fill="white" stroke="black" stroke-width="2"/>
  <rect x="160" y="450" width="50" height="50" fill="white" stroke="black" stroke-width="2"/>
  <rect x="210" y="450" width="50" height="50" fill="white" stroke="black" stroke-width="2"/>
  <rect x="110" y="500" width="50" height="50" fill="white" stroke="black" stroke-width="2"/>
  <rect x="160" y="500" width="50" height="50" fill="#ffff00" stroke="black" stroke-width="2"/>
  <rect x="210" y="500" width="50" height="50" fill="white" stroke="black" stroke-width="2"/>
  <rect x="110" y="550" width="50" height="50" fill="white" stroke="black" stroke-width="2"/>
  <rect x="160" y="550" width="50" height="50" fill="white" stroke="black" stroke-width="2"/>
  <rect x="210" y="550" width="50" height="50" fill="white" stroke="black" stroke-width="2"/>
  
  <!-- Left Square Numbers -->
  <text x="135" y="480" font-family="Arial, sans-serif" font-size="24" text-anchor="middle">39</text>
  <text x="185" y="480" font-family="Arial, sans-serif" font-size="24" text-anchor="middle">82</text>
  <text x="235" y="480" font-family="Arial, sans-serif" font-size="24" text-anchor="middle">5</text>
  <text x="135" y="530" font-family="Arial, sans-serif" font-size="24" text-anchor="middle">8</text>
  <text x="185" y="530" font-family="Arial, sans-serif" font-size="24" text-anchor="middle">42</text>
  <text x="235" y="530" font-family="Arial, sans-serif" font-size="24" text-anchor="middle">76</text>
  <text x="135" y="580" font-family="Arial, sans-serif" font-size="24" text-anchor="middle">79</text>
  <text x="185" y="580" font-family="Arial, sans-serif" font-size="24" text-anchor="middle">2</text>
  <text x="235" y="580" font-family="Arial, sans-serif" font-size="24" text-anchor="middle">45</text>
  
  <!-- Front Square -->
  <text x="400" y="380" font-family="Arial, sans-serif" font-size="18" text-anchor="middle">Front</text>
  <text x="400" y="400" font-family="Arial, sans-serif" font-size="18" text-anchor="middle">62 = 558÷9</text>
  
  <!-- Front Square Grid -->
  <rect x="325" y="450" width="50" height="50" fill="white" stroke="black" stroke-width="2"/>
  <rect x="375" y="450" width="50" height="50" fill="white" stroke="black" stroke-width="2"/>
  <rect x="425" y="450" width="50" height="50" fill="white" stroke="black" stroke-width="2"/>
  <rect x="325" y="500" width="50" height="50" fill="white" stroke="black" stroke-width="2"/>
  <rect x="375" y="500" width="50" height="50" fill="#ffff00" stroke="black" stroke-width="2"/>
  <rect x="425" y="500" width="50" height="50" fill="white" stroke="black" stroke-width="2"/>
  <rect x="325" y="550" width="50" height="50" fill="white" stroke="black" stroke-width="2"/>
  <rect x="375" y="550" width="50" height="50" fill="white" stroke="black" stroke-width="2"/>
  <rect x="425" y="550" width="50" height="50" fill="white" stroke="black" stroke-width="2"/>
  
  <!-- Front Square Numbers -->
  <text x="350" y="480" font-family="Arial, sans-serif" font-size="24" text-anchor="middle">53</text>
  <text x="400" y="480" font-family="Arial, sans-serif" font-size="24" text-anchor="middle">98</text>
  <text x="450" y="480" font-family="Arial, sans-serif" font-size="24" text-anchor="middle">35</text>
  <text x="350" y="530" font-family="Arial, sans-serif" font-size="24" text-anchor="middle">44</text>
  <text x="400" y="530" font-family="Arial, sans-serif" font-size="24" text-anchor="middle">62</text>
  <text x="450" y="530" font-family="Arial, sans-serif" font-size="24" text-anchor="middle">80</text>
  <text x="350" y="580" font-family="Arial, sans-serif" font-size="24" text-anchor="middle">89</text>
  <text x="400" y="580" font-family="Arial, sans-serif" font-size="24" text-anchor="middle">26</text>
  <text x="450" y="580" font-family="Arial, sans-serif" font-size="24" text-anchor="middle">71</text>
  
  <!-- Right Square -->
  <text x="615" y="380" font-family="Arial, sans-serif" font-size="18" text-anchor="middle">Right</text>
  <text x="615" y="400" font-family="Arial, sans-serif" font-size="18" text-anchor="middle">57 =513÷9</text>
  
  <!-- Right Square Grid -->
  <rect x="540" y="450" width="50" height="50" fill="white" stroke="black" stroke-width="2"/>
  <rect x="590" y="450" width="50" height="50" fill="white" stroke="black" stroke-width="2"/>
  <rect x="640" y="450" width="50" height="50" fill="white" stroke="black" stroke-width="2"/>
  <rect x="540" y="500" width="50" height="50" fill="white" stroke="black" stroke-width="2"/>
  <rect x="590" y="500" width="50" height="50" fill="#ffff00" stroke="black" stroke-width="2"/>
  <rect x="640" y="500" width="50" height="50" fill="white" stroke="black" stroke-width="2"/>
  <rect x="540" y="550" width="50" height="50" fill="white" stroke="black" stroke-width="2"/>
  <rect x="590" y="550" width="50" height="50" fill="white" stroke="black" stroke-width="2"/>
  <rect x="640" y="550" width="50" height="50" fill="white" stroke="black" stroke-width="2"/>
  
  <!-- Right Square Numbers -->
  <text x="565" y="480" font-family="Arial, sans-serif" font-size="24" text-anchor="middle">54</text>
  <text x="615" y="480" font-family="Arial, sans-serif" font-size="24" text-anchor="middle">97</text>
  <text x="665" y="480" font-family="Arial, sans-serif" font-size="24" text-anchor="middle">20</text>
  <text x="565" y="530" font-family="Arial, sans-serif" font-size="24" text-anchor="middle">23</text>
  <text x="615" y="530" font-family="Arial, sans-serif" font-size="24" text-anchor="middle">57</text>
  <text x="665" y="530" font-family="Arial, sans-serif" font-size="24" text-anchor="middle">91</text>
  <text x="565" y="580" font-family="Arial, sans-serif" font-size="24" text-anchor="middle">94</text>
  <text x="615" y="580" font-family="Arial, sans-serif" font-size="24" text-anchor="middle">17</text>
  <text x="665" y="580" font-family="Arial, sans-serif" font-size="24" text-anchor="middle">60</text>
  
  <!-- Back Square -->
  <text x="775" y="380" font-family="Arial, sans-serif" font-size="18" text-anchor="middle">Back</text>
  <text x="775" y="400" font-family="Arial, sans-serif" font-size="18" text-anchor="middle">37 =333÷9</text>
  <text x="885" y="380" font-family="Arial, sans-serif" font-size="18" text-anchor="middle">Magic Circle</text>
  <text x="885" y="400" font-family="Arial, sans-serif" font-size="18" text-anchor="middle">Sum</text>  
  
  <!-- Back Square Grid -->
  <rect x="700" y="450" width="50" height="50" fill="white" stroke="black" stroke-width="2"/>
  <rect x="750" y="450" width="50" height="50" fill="white" stroke="black" stroke-width="2"/>
  <rect x="800" y="450" width="50" height="50" fill="white" stroke="black" stroke-width="2"/>
  <rect x="700" y="500" width="50" height="50" fill="white" stroke="black" stroke-width="2"/>
  <rect x="750" y="500" width="50" height="50" fill="#ffff00" stroke="black" stroke-width="2"/>
  <rect x="800" y="500" width="50" height="50" fill="white" stroke="black" stroke-width="2"/>
  <rect x="700" y="550" width="50" height="50" fill="white" stroke="black" stroke-width="2"/>
  <rect x="750" y="550" width="50" height="50" fill="white" stroke="black" stroke-width="2"/>
  <rect x="800" y="550" width="50" height="50" fill="white" stroke="black" stroke-width="2"/>
  
  <!-- Back Square Numbers -->
  <text x="725" y="480" font-family="Arial, sans-serif" font-size="24" text-anchor="middle">10</text>
  <text x="775" y="480" font-family="Arial, sans-serif" font-size="24" text-anchor="middle">73</text>
  <text x="825" y="480" font-family="Arial, sans-serif" font-size="24" text-anchor="middle">28</text>
  <text x="725" y="530" font-family="Arial, sans-serif" font-size="24" text-anchor="middle">55</text>
  <text x="775" y="530" font-family="Arial, sans-serif" font-size="24" text-anchor="middle">37</text>
  <text x="825" y="530" font-family="Arial, sans-serif" font-size="24" text-anchor="middle">19</text>
  <text x="725" y="580" font-family="Arial, sans-serif" font-size="24" text-anchor="middle">46</text>
  <text x="775" y="580" font-family="Arial, sans-serif" font-size="24" text-anchor="middle">1</text>
  <text x="825" y="580" font-family="Arial, sans-serif" font-size="24" text-anchor="middle">64</text>
  <text x="885" y="480" font-family="Arial, sans-serif" font-size="24" text-anchor="middle">594</text>
  <text x="885" y="530" font-family="Arial, sans-serif" font-size="24" text-anchor="middle">594</text>
  <text x="885" y="580" font-family="Arial, sans-serif" font-size="24" text-anchor="middle">594</text>  
  
  <!-- Down Square -->
  <text x="400" y="690" font-family="Arial, sans-serif" font-size="18" text-anchor="middle">Down</text>
  <text x="400" y="710" font-family="Arial, sans-serif" font-size="18" text-anchor="middle">84 =252÷3=756÷9</text>
  
  <!-- Down Square Grid -->
  <rect x="325" y="740" width="50" height="50" fill="white" stroke="black" stroke-width="2"/>
  <rect x="375" y="740" width="50" height="50" fill="white" stroke="black" stroke-width="2"/>
  <rect x="425" y="740" width="50" height="50" fill="white" stroke="black" stroke-width="2"/>
  <rect x="325" y="790" width="50" height="50" fill="white" stroke="black" stroke-width="2"/>
  <rect x="375" y="790" width="50" height="50" fill="#ffff00" stroke="black" stroke-width="2"/>
  <rect x="425" y="790" width="50" height="50" fill="white" stroke="black" stroke-width="2"/>
  <rect x="325" y="840" width="50" height="50" fill="white" stroke="black" stroke-width="2"/>
  <rect x="375" y="840" width="50" height="50" fill="white" stroke="black" stroke-width="2"/>
  <rect x="425" y="840" width="50" height="50" fill="white" stroke="black" stroke-width="2"/>
  
  <!-- Down Square Numbers -->
  <text x="350" y="770" font-family="Arial, sans-serif" font-size="24" text-anchor="middle">93</text>
  <text x="400" y="770" font-family="Arial, sans-serif" font-size="24" text-anchor="middle">72</text>
  <text x="450" y="770" font-family="Arial, sans-serif" font-size="24" text-anchor="middle">87</text>
  <text x="350" y="820" font-family="Arial, sans-serif" font-size="24" text-anchor="middle">78</text>
  <text x="400" y="820" font-family="Arial, sans-serif" font-size="24" text-anchor="middle">84</text>
  <text x="450" y="820" font-family="Arial, sans-serif" font-size="24" text-anchor="middle">90</text>
  <text x="350" y="870" font-family="Arial, sans-serif" font-size="24" text-anchor="middle">81</text>
  <text x="400" y="870" font-family="Arial, sans-serif" font-size="24" text-anchor="middle">96</text>
  <text x="450" y="870" font-family="Arial, sans-serif" font-size="24" text-anchor="middle">75</text>
  <text x="350" y="920" font-family="Arial, sans-serif" font-size="24" text-anchor="middle">252</text>
  <text x="400" y="920" font-family="Arial, sans-serif" font-size="24" text-anchor="middle">252</text>
  <text x="450" y="920" font-family="Arial, sans-serif" font-size="24" text-anchor="middle">252</text>  
  <text x="510" y="770" font-family="Arial, sans-serif" font-size="24" text-anchor="middle">252</text>
  <text x="510" y="820" font-family="Arial, sans-serif" font-size="24" text-anchor="middle">252</text>
  <text x="510" y="870" font-family="Arial, sans-serif" font-size="24" text-anchor="middle">252</text> 
  <text x="530" y="920" font-family="Arial, sans-serif" font-size="18" text-anchor="middle">93+75=2*84</text>      

  <!-- Circle Arrow 
  <path d="M 175 500 A 225 225 0 1 0 400 750" stroke="#4a75c4" stroke-width="10" fill="none"/>
  -->
  
  <!-- Magic Circle Sum -->
  <text x="175" y="425" font-family="Arial, sans-serif" font-size="18" text-anchor="left">Any of nine layers of twelve numbers encircling the Rubik's cube gives a summation of 594</text>
  <text x="175" y="640" font-family="Arial, sans-serif" font-size="18" text-anchor="left">Median numbers on opposite sides of the Rubik's cube add up to 99 =891÷9</text>
  

</svg>
